<?xml version="1.0" encoding="UTF-8" standalone="no"?>
<svg
   xmlns:dc="http://purl.org/dc/elements/1.1/"
   xmlns:cc="http://creativecommons.org/ns#"
   xmlns:rdf="http://www.w3.org/1999/02/22-rdf-syntax-ns#"
   xmlns:svg="http://www.w3.org/2000/svg"
   xmlns="http://www.w3.org/2000/svg"
   xmlns:sodipodi="http://sodipodi.sourceforge.net/DTD/sodipodi-0.dtd"
   xmlns:inkscape="http://www.inkscape.org/namespaces/inkscape"
   sodipodi:docname="logo.svg"
   inkscape:version="1.0 (4035a4fb49, 2020-05-01)"
   id="svg1210"
   version="1.1"
   viewBox="0 0 4.6579552 5.6667004"
   height="5.6667004mm"
   width="4.6579552mm">
  <defs
     id="defs1204" />
  <sodipodi:namedview
     inkscape:window-maximized="0"
     inkscape:window-y="37"
     inkscape:window-x="220"
     inkscape:window-height="967"
     inkscape:window-width="1274"
     fit-margin-bottom="0"
     fit-margin-right="0"
     fit-margin-left="0"
     fit-margin-top="0"
     showgrid="false"
     inkscape:document-rotation="0"
     inkscape:current-layer="layer1"
     inkscape:document-units="mm"
     inkscape:cy="146.53477"
     inkscape:cx="-63.148184"
     inkscape:zoom="1.4"
     inkscape:pageshadow="2"
     inkscape:pageopacity="0.0"
     borderopacity="1.0"
     bordercolor="#666666"
     pagecolor="#ffffff"
     id="base" />
  <metadata
     id="metadata1207">
    <rdf:RDF>
      <cc:Work
         rdf:about="">
        <dc:format>image/svg+xml</dc:format>
        <dc:type
           rdf:resource="http://purl.org/dc/dcmitype/StillImage" />
        <dc:title></dc:title>
      </cc:Work>
    </rdf:RDF>
  </metadata>
  <g
     transform="translate(-266.03353,-14.553546)"
     id="layer1"
     inkscape:groupmode="layer"
     inkscape:label="Layer 1">
    <path
       d="m 269.53758,15.76183 c 0.0229,-0.04025 0.0128,-0.07783 0.0128,-0.113539 8.4e-4,-0.325954 -8.3e-4,-0.651916 0.002,-0.977878 0,-0.03573 0.011,-0.09156 0.0458,-0.09705 0.0604,-0.01004 0.13368,-0.03389 0.16939,0.06687 0.0833,0.2344 0.17854,0.464214 0.27193,0.694948 0.15475,0.382727 0.35984,0.745311 0.48253,1.14178 0.0824,0.267355 0.15474,0.54021 0.16207,0.821307 0.0119,0.446815 0.007,0.893638 0.002,1.340461 -0.006,0.538378 -0.22433,0.968723 -0.67755,1.26721 -0.31132,0.205101 -0.65193,0.320464 -1.03191,0.314054 -0.45048,-0.0075 -0.90096,-0.0017 -1.35145,-0.0017 -0.69769,0 -1.36152,-0.52282 -1.52541,-1.199457 -0.0439,-0.182209 -0.0696,-0.364413 -0.0659,-0.553036 0.0101,-0.445903 -0.006,-0.892726 0.009,-1.339541 0.007,-0.190447 0.0714,-0.360751 0.14558,-0.526485 0.28751,-0.640928 0.55578,-1.290099 0.8268,-1.938357 0.0595,-0.126352 0.1465,-0.121774 0.22067,-0.08606 0,0 0.0229,0.05766 0.0229,0.08698 0.002,0.336942 0.003,0.673892 0,1.010834 -8.5e-4,0.07507 0.004,0.07691 0.0952,0.07967 0.14834,0.0033 0.29209,-0.01464 0.4395,-0.01372 0.32962,0.0017 0.66199,-8.36e-4 0.99161,0 0.25729,-8.36e-4 0.48161,0.0075 0.75263,0.02293 z"
       id="path6"
       inkscape:connector-curvature="0"
       style="display:inline;stroke:none;stroke-width:0.316299;stroke-miterlimit:4;stroke-dasharray:none;stroke-opacity:1" />
    <path
       class="st0"
       d="m 268.34728,19.232928 c -0.20876,0 -0.41752,-0.01004 -0.62536,0.0025 -0.32139,0.01925 -0.65742,-0.24081 -0.66474,-0.641848 -0.008,-0.435835 -0.008,-0.87075 0,-1.306585 0.006,-0.323216 0.28933,-0.592405 0.63818,-0.599728 0.46056,-0.01004 0.92203,-0.0084 1.3835,-8.36e-4 0.31131,0.0059 0.58508,0.290252 0.58966,0.611637 0.007,0.461468 0.007,0.922025 0,1.383493 -0.003,0.289332 -0.29758,0.546621 -0.61896,0.551198 -0.23348,0.0025 -0.46788,0 -0.70228,0 z"
       id="path28"
       inkscape:connector-curvature="0"
       style="display:inline;fill:#fefefe;stroke:none;stroke-width:0.316299;stroke-miterlimit:4;stroke-dasharray:none;stroke-opacity:1" />
    <path
       d="m 269.21986,17.418177 c 0,0.109873 -0.003,0.219747 8.4e-4,0.329628 0.003,0.0595 -0.011,0.08335 -0.0769,0.08059 -0.13551,-0.0059 -0.27102,-0.0034 -0.40653,0 -0.0586,0.0017 -0.0842,-0.01004 -0.0833,-0.07691 0.003,-0.227069 0.002,-0.454146 -0.002,-0.681215 -8.4e-4,-0.06226 0.0192,-0.08243 0.0815,-0.07967 0.13552,0.0042 0.27102,0.0067 0.40654,-8.37e-4 0.0741,-0.0033 0.0824,0.02653 0.0806,0.0879 -0.004,0.112618 -8.4e-4,0.227078 -8.4e-4,0.340608 z"
       id="path30"
       inkscape:connector-curvature="0"
       style="display:inline;stroke:none;stroke-width:0.316299;stroke-miterlimit:4;stroke-dasharray:none;stroke-opacity:1" />
    <path
       d="m 268.12845,17.42001 c 0,0.113539 -0.0174,0.24081 -0.0119,0.354341 0.003,0.05314 -0.0119,0.05498 -0.066,0.05406 -0.14924,-0.0034 -0.26278,-0.0034 -0.41202,-8.47e-4 -0.0522,8.47e-4 -0.0687,-0.01372 -0.0678,-0.06687 0.003,-0.233479 0.003,-0.467879 0,-0.701358 -8.5e-4,-0.04946 0.009,-0.07047 0.065,-0.06963 0.14192,0.0034 0.28476,0.0034 0.42759,0 0.055,-0.0017 0.0678,0.01833 0.0669,0.06871 -0.003,0.120861 -0.002,0.24081 -0.002,0.361671 0.008,0 0,0 0,0 z"
       id="path32"
       inkscape:connector-curvature="0"
       style="display:inline;stroke:none;stroke-width:0.316299;stroke-miterlimit:4;stroke-dasharray:none;stroke-opacity:1" />
  </g>
</svg>
